<mxfile host="app.diagrams.net" modified="2023-06-23T07:41:50.286Z" agent="Mozilla/5.0 (Windows NT 10.0; Win64; x64; rv:109.0) Gecko/20100101 Firefox/114.0" version="21.5.0" etag="R_0SE1p59iDuXm9N5wQ_" type="github">
  <diagram name="Page-1" id="RUe-QeUi7HRAfDfu4R_8">
    <mxGraphModel>
      <root>
        <mxCell id="0" />
        <mxCell id="1" parent="0" />
      </root>
    </mxGraphModel>
  </diagram>
</mxfile>
